<svg viewBox="0 0 2000 1400" xmlns="http://www.w3.org/2000/svg"><mask id="b" x="0" y="0" width="2000" height="1400"><path fill="url(#a)" d="M0 0h2000v1400H0z"/></mask><path d="M0 0h2000v1400H0z"/><g style="transform-origin:center center" stroke="#ffffff91" stroke-width=".4" fill="none" mask="url(#b)"><path d="M0 0h200v200H0zM200 0h200v200H200zM400 0h200v200H400zM600 0h200v200H600zM800 0h200v200H800zM1000 0h200v200h-200zM1200 0h200v200h-200zM1400 0h200v200h-200zM1600 0h200v200h-200zM1800 0h200v200h-200zM0 200h200v200H0zM200 200h200v200H200zM400 200h200v200H400zM600 200h200v200H600zM800 200h200v200H800zM1000 200h200v200h-200zM1200 200h200v200h-200zM1400 200h200v200h-200zM1600 200h200v200h-200zM1800 200h200v200h-200zM0 400h200v200H0zM200 400h200v200H200zM400 400h200v200H400zM600 400h200v200H600zM800 400h200v200H800zM1000 400h200v200h-200zM1200 400h200v200h-200zM1400 400h200v200h-200zM1600 400h200v200h-200zM1800 400h200v200h-200zM0 600h200v200H0zM200 600h200v200H200zM400 600h200v200H400zM600 600h200v200H600zM800 600h200v200H800zM1000 600h200v200h-200zM1200 600h200v200h-200zM1400 600h200v200h-200zM1600 600h200v200h-200zM1800 600h200v200h-200zM0 800h200v200H0zM200 800h200v200H200zM400 800h200v200H400zM600 800h200v200H600zM800 800h200v200H800zM1000 800h200v200h-200zM1200 800h200v200h-200zM1400 800h200v200h-200zM1600 800h200v200h-200zM1800 800h200v200h-200zM0 1000h200v200H0zM200 1000h200v200H200zM400 1000h200v200H400zM600 1000h200v200H600zM800 1000h200v200H800zM1000 1000h200v200h-200zM1200 1000h200v200h-200zM1400 1000h200v200h-200zM1600 1000h200v200h-200zM1800 1000h200v200h-200zM0 1200h200v200H0zM200 1200h200v200H200zM400 1200h200v200H400zM600 1200h200v200H600zM800 1200h200v200H800zM1000 1200h200v200h-200zM1200 1200h200v200h-200zM1400 1200h200v200h-200zM1600 1200h200v200h-200zM1800 1200h200v200h-200z"/></g><defs><radialGradient id="a"><stop offset="0" stop-color="#fff"/><stop offset="1" stop-color="#fff" stop-opacity="0"/></radialGradient></defs></svg>